<?xml version="1.0" encoding="utf-8" ?>
<svg baseProfile="full" height="600px" version="1.1" width="1200px" xmlns="http://www.w3.org/2000/svg" xmlns:ev="http://www.w3.org/2001/xml-events" xmlns:xlink="http://www.w3.org/1999/xlink"><defs /><rect fill="#FFFFFF" height="600px" width="1200px" x="0" y="0" /><path d="M 250 190 A 110 110 0 1 0 250 410" fill="none" stroke="#000000" stroke-width="5" /><line stroke="#C9A227" stroke-width="3" x1="260" x2="278" y1="190" y2="180" /><line stroke="#C9A227" stroke-width="3" x1="260" x2="276" y1="190" y2="202" /><polygon fill="#C9A227" points="383.9753125,236.555625 383.33283203124995,234.92634765625002 381.49205078125,232.29931640625 380.29375,231.3015625 378.91748046875,230.520625 375.65294921875,229.628125 373.7646875,229.5165625 371.42453125,229.72375 369.2596875,230.3453125 367.303359375,231.37328125 365.578125,232.7890625 364.70787109375,233.75029296875 363.32396484375,235.86201171874998 362.8103125,237.0125 362.13296875000003,239.5359375 361.9071875,242.3675 362.115703125,245.11771484374998 363.21041015625,248.7188427734375 364.46150390625,250.7701318359375 365.2434375,251.6909375 366.1119482421875,252.5214306640625 368.0476904296876,253.8502197265625 371.44810546875,255.01291015625 374.04625,255.234375 376.13671875,255.1015625 378.36,254.703125 380.74,254.03507812499998 383.29,253.0934375 383.29,247.3825 381.4146875,247.3825 381.03152343749997,248.83912109375 379.7990234375,251.13677734375 378.9496875,251.9778125 377.93234375,252.62626953125 375.33984375,253.36736328125 373.7646875,253.46 371.90066406249997,253.28402343750003 368.89378906250005,251.8762109375 367.7509375,250.644375 366.8584375,249.07121093749998 365.8384375,244.9327734375 365.7109375,242.3675 365.8384375,239.80919921875 366.8584375,235.67873046875 367.7509375,234.1065625 368.89378906250005,232.87705078124998 371.90066406249997,231.47189453124997 373.7646875,231.29625 375.08982421875,231.37859375 377.37154296874996,232.03734375 378.328125,232.61375 379.16351562499995,233.356171875 380.459765625,235.327109375 380.920625,236.555625 383.9753125,236.555625" /><polygon fill="#C9A227" points="414.4351953125,238.9834375 423.5355078125,238.9834375 418.9880078125,250.7665625 414.4351953125,238.9834375" /><polygon fill="#C9A227" points="407.4280078125,230.0 407.4280078125,231.7584375 409.6061328125,231.7584375 418.4355078125,254.788125 421.2245703125,254.788125 430.0751953125,231.7584375 432.5136328125,231.7584375 432.5136328125,230.0 423.5036328125,230.0 423.5036328125,231.7584375 426.2555078125,231.7584375 424.18363281250004,237.20375 413.7551953125,237.20375 411.6833203125,231.7584375 414.4033203125,231.7584375 414.4033203125,230.0 407.4280078125,230.0" /><polygon fill="#C9A227" points="462.197890625,242.6171875 466.580703125,242.6171875 467.74447265625,242.70052734375 469.62775390625,243.36724609375 470.347265625,243.950625 470.914375,244.69404296875 471.5625,246.62513671875 471.643515625,247.8128125 471.5625,249.00679687500002 470.914375,250.940546875 470.347265625,251.6803125 469.62775390625,252.2613671875 467.74447265625,252.9254296875 466.580703125,253.0084375 462.197890625,253.0084375 462.197890625,242.6171875" /><polygon fill="#C9A227" points="455.674140625,230.0 455.674140625,231.7584375 458.829765625,231.7584375 458.829765625,253.0084375 455.674140625,253.0084375 455.674140625,254.788125 467.393515625,254.788125 469.15626953125,254.67025390625003 472.10205078125006,253.72728515625 473.28507812500004,252.9021875 474.2380078125,251.87687499999998 475.32707031250004,249.3321875 475.463203125,247.8128125 475.32707031250004,246.300078125 474.2380078125,243.76070312500002 473.28507812500004,242.7340625 472.10205078125006,241.906640625 469.15626953125,240.96101562500002 467.393515625,240.8428125 462.197890625,240.8428125 462.197890625,231.7584375 466.033515625,231.7584375 466.033515625,230.0 455.674140625,230.0" /><line stroke="#C9A227" stroke-width="2" x1="360" x2="810" y1="270" y2="270" /><polygon fill="#000000" points="406.70875,391.3225 408.544375,390.958125 411.76187500000003,389.693125 413.14375,388.7925 414.41390624999997,387.6925 416.69640625,384.8325 417.70875,383.0725 427.0725,365.1975 433.645,365.1975 433.645,360.0 412.5525,360.0 402.3225,379.37375 400.89851562499996,382.11171875 398.375390625,385.94796875 397.27625,387.04625 396.1315625,387.774140625 393.24406250000004,388.60601562499994 391.50125,388.71 388.875,388.71 388.875,365.1975 397.125,365.1975 397.125,360.0 364.125,360.0 364.125,365.1975 372.33375,365.1975 372.33375,418.96 364.125,418.96 364.125,424.1575 400.74125,424.1575 403.4530078125,424.08724609375 408.3995703125,423.52521484375 412.7101953125,422.40115234374997 416.3848828125,420.71505859375003 417.98375,419.66125 419.40816406249996,418.48175781249995 421.6872265625,415.7695703124999 423.2066015625,412.5864453124999 423.9662890625,408.9323828125 424.06125,406.92875 423.99378906249996,405.29529296875 423.4541015625,402.29263671875 422.3747265625,399.64232421875 420.7556640625,397.34435546875 419.74375,396.3275 418.5956249999999,395.3980859375 415.8868749999999,393.79964843749997 410.7925,392.05296875 406.70875,391.3225" /><polygon fill="#000000" points="388.875,393.86625 394.49875,393.86625 397.33640625,394.069921875 400.94191406249996,395.13919921875004 402.91160156250004,396.36123046875 403.76625,397.125 404.526796875,397.9865234375 405.743671875,399.96996093750005 406.8084375,403.59609375 407.01125,406.4475 406.8084375,409.301484375 405.743671875,412.91537109374997 404.526796875,414.87990234375 403.76625,415.72875 402.91160156250004,416.48607421875 400.94191406249996,417.69779296875 397.33640625,418.758046875 394.49875,418.96 388.875,418.96 388.875,393.86625" /><polygon fill="#000000" points="437.2578125,360.0 437.2578125,365.1975 445.4665625,365.1975 445.4665625,418.96 437.2578125,418.96 437.2578125,424.1575 494.9253125,424.1575 494.9253125,409.0325 488.99906250000004,409.0325 488.99906250000004,418.2725 462.0078125,418.2725 462.0078125,397.68875 478.8103125,397.68875 478.8103125,405.8425 484.6953125,405.8425 484.6953125,383.6775 478.8103125,383.6775 478.8103125,391.845 462.0078125,391.845 462.0078125,365.885 489.8103125,365.885 489.8103125,375.125 495.6953125,375.125 495.6953125,360.0 437.2578125,360.0" /><polygon fill="#000000" points="504.07078125,360.0 504.07078125,365.1975 512.27953125,365.1975 512.27953125,418.96 504.07078125,418.96 504.07078125,424.1575 524.14578125,424.1575 562.85203125,378.74125 562.85203125,418.96 554.69828125,418.96 554.69828125,424.1575 577.12453125,424.1575 577.12453125,418.96 568.91578125,418.96 568.91578125,360.0 557.65453125,360.0 518.34328125,406.365 518.34328125,365.1975 526.51078125,365.1975 526.51078125,360.0 504.07078125,360.0" /><polygon fill="#000000" points="596.58078125,360.0 596.58078125,365.1975 605.09203125,365.1975 605.09203125,418.2725 587.51953125,418.2725 587.51953125,408.125 581.63453125,408.125 581.63453125,424.1575 645.22828125,424.1575 645.22828125,408.125 639.42578125,408.125 639.42578125,418.2725 621.72953125,418.2725 621.72953125,365.1975 630.26828125,365.1975 630.26828125,360.0 596.58078125,360.0" /><polygon fill="#000000" points="650.25390625,360.0 650.25390625,365.1975 658.46265625,365.1975 658.46265625,418.96 650.25390625,418.96 650.25390625,424.1575 683.25390625,424.1575 683.25390625,418.96 675.00390625,418.96 675.00390625,365.1975 683.25390625,365.1975 683.25390625,360.0 650.25390625,360.0" /><polygon fill="#000000" points="691.41796875,360.0 691.41796875,365.1975 699.62671875,365.1975 699.62671875,418.96 691.41796875,418.96 691.41796875,424.1575 749.08546875,424.1575 749.08546875,409.0325 743.15921875,409.0325 743.15921875,418.2725 716.16796875,418.2725 716.16796875,397.68875 732.97046875,397.68875 732.97046875,405.8425 738.85546875,405.8425 738.85546875,383.6775 732.97046875,383.6775 732.97046875,391.845 716.16796875,391.845 716.16796875,365.885 743.97046875,365.885 743.97046875,375.125 749.85546875,375.125 749.85546875,360.0 691.41796875,360.0" /><polygon fill="#000000" points="801.0759375,391.3225 802.9115625000001,390.958125 806.1290624999999,389.693125 807.5109375,388.7925 808.78109375,387.6925 811.06359375,384.8325 812.0759375,383.0725 821.4396875,365.1975 828.0121875,365.1975 828.0121875,360.0 806.9196875,360.0 796.6896875,379.37375 795.265703125,382.11171875 792.7425781249999,385.94796875 791.6434375,387.04625 790.4987500000001,387.774140625 787.6112499999999,388.60601562499994 785.8684375,388.71 783.2421875,388.71 783.2421875,365.1975 791.4921875,365.1975 791.4921875,360.0 758.4921875,360.0 758.4921875,365.1975 766.7009375,365.1975 766.7009375,418.96 758.4921875,418.96 758.4921875,424.1575 795.1084375,424.1575 797.8201953125001,424.08724609375 802.7667578125,423.52521484375 807.0773828124999,422.40115234374997 810.7520703125,420.71505859375003 812.3509375,419.66125 813.7753515625,418.48175781249995 816.0544140625,415.7695703124999 817.5737890625,412.5864453124999 818.3334765625,408.9323828125 818.4284375,406.92875 818.3609765624999,405.29529296875 817.8212890625,402.29263671875 816.7419140624999,399.64232421875 815.1228515624999,397.34435546875 814.1109375,396.3275 812.9628125,395.3980859375 810.2540625,393.79964843749997 805.1596875,392.05296875 801.0759375,391.3225" /><polygon fill="#000000" points="783.2421875,393.86625 788.8659375,393.86625 791.70359375,394.069921875 795.3091015625,395.13919921875004 797.2787890625,396.36123046875 798.1334375,397.125 798.8939843750001,397.9865234375 800.1108593750001,399.96996093750005 801.1756250000001,403.59609375 801.3784375,406.4475 801.1756250000001,409.301484375 800.1108593750001,412.91537109374997 798.8939843750001,414.87990234375 798.1334375,415.72875 797.2787890625,416.48607421875 795.3091015625,417.69779296875 791.70359375,418.758046875 788.8659375,418.96 783.2421875,418.96 783.2421875,393.86625" /><polygon fill="#C9A227" points="368.623125,436.51375 369.1940625,436.28734375000005 369.680625,435.945625 370.101796875,435.46609374999997 370.4765625,434.82625 372.3834375,430.9309375 373.98375,430.9309375 373.98375,430.0 370.89,430.0 368.8425,434.17375 368.276484375,435.17359375 367.7596875,435.743125 367.175390625,436.01101562499997 366.406875,436.1003125 364.4465625,436.1003125 364.4465625,430.9309375 366.3028125,430.9309375 366.3028125,430.0 360.9928125,430.0 360.9928125,430.9309375 362.6634375,430.9309375 362.6634375,442.1809375 360.9928125,442.1809375 360.9928125,443.123125 367.6471875,443.123125 368.55017578125,443.06599609375 370.02814453124995,442.60896484375 370.603125,442.2090625 371.05962890624994,441.70421875 371.58134765625005,440.40765625 371.6465625,439.6159375 371.45601562499996,438.40656249999995 370.884375,437.4840625 369.93937500000004,436.851953125 368.623125,436.51375" /><polygon fill="#C9A227" points="364.4465625,437.0396875 367.0396875,437.0396875 368.19351562500003,437.196484375 369.0,437.666875 369.474609375,438.469140625 369.6328125,439.6159375 369.474609375,440.760625 369.0,441.5565625 368.19351562500003,442.02484375 367.0396875,442.1809375 364.4465625,442.1809375 364.4465625,437.0396875" /><polygon fill="#C9A227" points="380.2672265625,430.0 380.2672265625,430.9309375 381.9378515625,430.9309375 381.9378515625,442.1809375 380.2672265625,442.1809375 380.2672265625,443.123125 390.8309765625,443.123125 390.8309765625,440.20375 389.7509765625,440.20375 389.7509765625,442.0403125 383.7209765625,442.0403125 383.7209765625,437.6471875 388.0184765625,437.6471875 388.0184765625,439.2896875 389.1012890625,439.2896875 389.1012890625,434.9303125 388.0184765625,434.9303125 388.0184765625,436.575625 383.7209765625,436.575625 383.7209765625,431.08 389.8916015625,431.08 389.8916015625,432.919375 390.9716015625,432.919375 390.9716015625,430.0 380.2672265625,430.0" /><polygon fill="#C9A227" points="399.0160546875,430.0 399.0160546875,430.9309375 400.7823046875,430.9309375 400.7823046875,442.1809375 399.0160546875,442.1809375 399.0160546875,443.123125 402.3798046875,443.123125 410.2463671875,432.7675 410.2463671875,442.1809375 408.4885546875,442.1809375 408.4885546875,443.123125 413.0954296875,443.123125 413.0954296875,442.1809375 411.3291796875,442.1809375 411.3291796875,429.7440625 410.2660546875,429.7440625 401.8623046875,440.8028125 401.8623046875,430.9309375 403.6285546875,430.9309375 403.6285546875,430.0 399.0160546875,430.0" /><polygon fill="#C9A227" points="423.044296875,430.0 423.044296875,430.9309375 424.723359375,430.9309375 424.723359375,442.076875 420.864609375,442.076875 420.864609375,440.029375 419.784609375,440.029375 419.784609375,443.123125 431.436796875,443.123125 431.436796875,440.029375 430.356796875,440.029375 430.356796875,442.076875 426.498046875,442.076875 426.498046875,430.9309375 428.177109375,430.9309375 428.177109375,430.0 423.044296875,430.0" /><polygon fill="#C9A227" points="440.9377734375,434.7559375 445.7555859375,434.7559375 443.3480859375,440.9940625 440.9377734375,434.7559375" /><polygon fill="#C9A227" points="437.2280859375,430.0 437.2280859375,430.9309375 438.3812109375,430.9309375 443.0555859375,443.123125 444.5321484375,443.123125 449.2177734375,430.9309375 450.5087109375,430.9309375 450.5087109375,430.0 445.7387109375,430.0 445.7387109375,430.9309375 447.1955859375,430.9309375 446.0987109375,433.81375 440.5777734375,433.81375 439.4808984375,430.9309375 440.9208984375,430.9309375 440.9208984375,430.0 437.2280859375,430.0" /><polygon fill="#C9A227" points="460.5022265625,430.9309375 463.1319140625,430.9309375 464.4994921875,431.1025 465.4409765625,431.6171875 465.9894140625,432.505234375 466.1722265625,433.796875 465.9908203125,435.08078125 465.4466015625,435.9625 464.50511718750005,436.475078125 463.1319140625,436.6459375 460.5022265625,436.6459375 460.5022265625,430.9309375" /><polygon fill="#C9A227" points="460.5022265625,437.576875 462.7353515625,437.576875 463.98269531249997,437.715390625 464.8391015625,438.1309375 465.3369140625,438.8453125 465.5028515625,439.8803125 465.3369140625,440.920234375 464.8391015625,441.6325 463.98269531249997,442.043828125 462.7353515625,442.1809375 460.5022265625,442.1809375 460.5022265625,437.576875" /><polygon fill="#C9A227" points="457.0484765625,430.0 457.0484765625,430.9309375 458.7191015625,430.9309375 458.7191015625,442.1809375 457.0484765625,442.1809375 457.0484765625,443.123125 463.5256640625,443.123125 464.458359375,443.07232421875005 465.954609375,442.66591796875 466.5181640625,442.3103125 466.958671875,441.8536328125 467.462109375,440.63863281249996 467.5250390625,439.8803125 467.3499609375,438.82914062500004 466.8247265625,438.015625 465.96550781250005,437.45523437500003 464.7828515625,437.1634375 466.2523828125,436.79078125 467.3197265625,436.0946875 467.69871093750004,435.63044921874996 468.1318359375,434.48154296875 468.1859765625,433.796875 468.108984375,432.8852734375 467.493046875,431.4480859375 466.9541015625,430.9225 466.2530859375,430.51890625 464.3321484375,430.05765625000004 463.1122265625,430.0 457.0484765625,430.0" /><polygon fill="#C9A227" points="479.4514453125,430.9309375 481.1220703125,430.9309375 481.1220703125,430.0 475.9976953125,430.0 475.9976953125,430.9309375 477.6683203125,430.9309375 477.6683203125,442.1809375 475.9976953125,442.1809375 475.9976953125,443.123125 481.1220703125,443.123125 481.1220703125,442.1809375 479.4514453125,442.1809375 479.4514453125,430.9309375" /><polygon fill="#C9A227" points="488.8297265625,430.0 488.8297265625,430.9309375 490.5003515625,430.9309375 490.5003515625,442.1809375 488.8297265625,442.1809375 488.8297265625,443.123125 493.9541015625,443.123125 493.9541015625,442.1809375 492.2834765625,442.1809375 492.2834765625,431.08 498.2797265625,431.08 498.2797265625,433.279375 499.3597265625,433.279375 499.3597265625,430.0 488.8297265625,430.0" /><polygon fill="#C9A227" points="509.95828125,430.9309375 511.62890625,430.9309375 511.62890625,430.0 506.50453125,430.0 506.50453125,430.9309375 508.17515625,430.9309375 508.17515625,442.1809375 506.50453125,442.1809375 506.50453125,443.123125 511.62890625,443.123125 511.62890625,442.1809375 509.95828125,442.1809375 509.95828125,430.9309375" /><polygon fill="#C9A227" points="521.780625,430.0 521.780625,430.9309375 523.4596875,430.9309375 523.4596875,442.076875 519.6009375,442.076875 519.6009375,440.029375 518.5209375,440.029375 518.5209375,443.123125 530.173125,443.123125 530.173125,440.029375 529.093125,440.029375 529.093125,442.076875 525.234375,442.076875 525.234375,430.9309375 526.9134375,430.9309375 526.9134375,430.0 521.780625,430.0" /><polygon fill="#C9A227" points="537.0641015625,430.0 537.0641015625,430.9309375 538.7347265625,430.9309375 538.7347265625,442.1809375 537.0641015625,442.1809375 537.0641015625,443.123125 547.6278515624999,443.123125 547.6278515624999,440.20375 546.5478515625,440.20375 546.5478515625,442.0403125 540.5178515625,442.0403125 540.5178515625,437.6471875 544.8153515624999,437.6471875 544.8153515624999,439.2896875 545.8981640625,439.2896875 545.8981640625,434.9303125 544.8153515624999,434.9303125 544.8153515624999,436.575625 540.5178515625,436.575625 540.5178515625,431.08 546.6884765625,431.08 546.6884765625,432.919375 547.7684765624999,432.919375 547.7684765624999,430.0 537.0641015625,430.0" /><polygon fill="#C9A227" points="543.1953515625,446.6528125 544.9278515625,446.6528125 542.6244140625,444.3325 541.5950390625001,444.3325 543.1953515625,446.6528125" /><polygon fill="#C9A227" points="570.8225390625,430.9309375 572.4931640625,430.9309375 572.4931640625,430.0 567.3687890625,430.0 567.3687890625,430.9309375 569.0394140625,430.9309375 569.0394140625,442.1809375 567.3687890625,442.1809375 567.3687890625,443.123125 572.4931640625,443.123125 572.4931640625,442.1809375 570.8225390625,442.1809375 570.8225390625,430.9309375" /><polygon fill="#C9A227" points="580.2008203125,430.0 580.2008203125,430.9309375 581.8714453125,430.9309375 581.8714453125,442.1809375 580.1051953125,442.1809375 580.1051953125,443.123125 583.9273828125,443.123125 588.5342578125,433.78 593.1383203125,443.123125 596.7242578125,443.123125 596.7242578125,442.1809375 594.9748828125,442.1809375 594.9748828125,430.9309375 596.6539453125,430.9309375 596.6539453125,430.0 591.5211328125,430.0 591.5211328125,430.9309375 593.1917578125,430.9309375 593.1917578125,441.075625 588.6917578125,431.92375 587.4514453125,431.92375 582.9514453125,441.075625 582.9514453125,430.9309375 584.6220703125,430.9309375 584.6220703125,430.0 580.2008203125,430.0" /><polygon fill="#C9A227" points="604.3531640625,430.0 604.3531640625,430.9309375 606.0237890625,430.9309375 606.0237890625,442.1809375 604.2575390625,442.1809375 604.2575390625,443.123125 608.0797265625,443.123125 612.6866015625,433.78 617.2906640625,443.123125 620.8766015625,443.123125 620.8766015625,442.1809375 619.1272265625,442.1809375 619.1272265625,430.9309375 620.8062890625,430.9309375 620.8062890625,430.0 615.6734765625,430.0 615.6734765625,430.9309375 617.3441015625,430.9309375 617.3441015625,441.075625 612.8441015625,431.92375 611.6037890625,431.92375 607.1037890625,441.075625 607.1037890625,430.9309375 608.7744140625,430.9309375 608.7744140625,430.0 604.3531640625,430.0" /><polygon fill="#C9A227" points="634.8955078125,430.68625 635.9066015625001,430.77871093749997 637.5322265625,431.51839843749997 638.1467578125,432.165625 638.6278710937501,432.99531249999995 639.17771484375,435.18625 639.2464453125,436.5475 639.17771484375,437.91349609375004 638.6278710937501,440.10865234375 638.1467578125,440.9378125 637.5322265625,441.58626953125 635.9066015625001,442.32736328125 634.8955078125,442.42 633.880546875,442.32736328125 632.249296875,441.58626953125 631.6330078125,440.9378125 631.1531249999999,440.10865234375 630.6046875,437.91349609375004 630.5361328125,436.5475 630.6046875,435.18625 631.1531249999999,432.99531249999995 631.6330078125,432.165625 632.249296875,431.51839843749997 633.880546875,430.77871093749997 634.8955078125,430.68625" /><polygon fill="#C9A227" points="634.8955078125,429.7440625 633.6130078125,429.85375 632.4373828125,430.1828125 631.3848046875,430.72703125 630.4658203125,431.4765625 629.6073046875,432.52703125 629.0005078125,433.7096875 628.6419140625,435.043515625 628.5223828124999,436.5475 628.6419140625,438.054296875 629.0005078125,439.3909375 629.6073046875,440.575703125 630.4658203125,441.626875 631.3883203125,442.382734375 632.4345703125,442.9234375 633.6038671875,443.250390625 634.8955078125,443.359375 636.25552734375,443.2423046875 638.5631835937501,442.30574218749996 639.5108203125001,441.48625 640.2798632812501,440.4762109375 641.1587695312501,438.0068359375 641.2686328125001,436.5475 641.1476953125,435.05265625 640.7848828125,433.7125 640.1759765625,432.52351562499996 639.3167578125,431.4765625 638.3942578125,430.722109375 637.3480078125,430.18 636.1808203125,429.853046875 634.8955078125,429.7440625" /><polygon fill="#C9A227" points="652.4377734375,430.9309375 655.0674609375001,430.9309375 656.4350390625001,431.1025 657.3765234375,431.6171875 657.9249609374999,432.505234375 658.1077734375,433.796875 657.9263671875001,435.08078125 657.3821484375001,435.9625 656.4406640625,436.475078125 655.0674609375001,436.6459375 652.4377734375,436.6459375 652.4377734375,430.9309375" /><polygon fill="#C9A227" points="652.4377734375,437.576875 654.6708984375,437.576875 655.9182421875,437.715390625 656.7746484375,438.1309375 657.2724609375,438.8453125 657.4383984374999,439.8803125 657.2724609375,440.920234375 656.7746484375,441.6325 655.9182421875,442.043828125 654.6708984375,442.1809375 652.4377734375,442.1809375 652.4377734375,437.576875" /><polygon fill="#C9A227" points="648.9840234375,430.0 648.9840234375,430.9309375 650.6546484375,430.9309375 650.6546484375,442.1809375 648.9840234375,442.1809375 648.9840234375,443.123125 655.4612109375,443.123125 656.39390625,443.07232421875005 657.89015625,442.66591796875 658.4537109375,442.3103125 658.8942187499999,441.8536328125 659.39765625,440.63863281249996 659.4605859375,439.8803125 659.2855078125001,438.82914062500004 658.7602734375,438.015625 657.9010546874999,437.45523437500003 656.7183984375,437.1634375 658.1879296875,436.79078125 659.2552734374999,436.0946875 659.6342578125,435.63044921874996 660.0673828125,434.48154296875 660.1215234375,433.796875 660.04453125,432.8852734375 659.4285937499999,431.4480859375 658.8896484375,430.9225 658.1886328124999,430.51890625 656.2676953124999,430.05765625000004 655.0477734374999,430.0 648.9840234375,430.0" /><polygon fill="#C9A227" points="671.3869921875,430.9309375 673.0576171875,430.9309375 673.0576171875,430.0 667.9332421875,430.0 667.9332421875,430.9309375 669.6038671875,430.9309375 669.6038671875,442.1809375 667.9332421875,442.1809375 667.9332421875,443.123125 673.0576171875,443.123125 673.0576171875,442.1809375 671.3869921875,442.1809375 671.3869921875,430.9309375" /><polygon fill="#C9A227" points="680.7652734375,430.0 680.7652734375,430.9309375 682.4358984375,430.9309375 682.4358984375,442.1809375 680.7652734375,442.1809375 680.7652734375,443.123125 685.8896484375,443.123125 685.8896484375,442.1809375 684.2190234375,442.1809375 684.2190234375,431.08 690.2152734375,431.08 690.2152734375,433.279375 691.2952734375,433.279375 691.2952734375,430.0 680.7652734375,430.0" /><polygon fill="#C9A227" points="701.893828125,430.9309375 703.564453125,430.9309375 703.564453125,430.0 698.440078125,430.0 698.440078125,430.9309375 700.110703125,430.9309375 700.110703125,442.1809375 698.440078125,442.1809375 698.440078125,443.123125 703.564453125,443.123125 703.564453125,442.1809375 701.893828125,442.1809375 701.893828125,430.9309375" /><polygon fill="#C9A227" points="711.272109375,430.0 711.272109375,430.9309375 712.942734375,430.9309375 712.942734375,442.1809375 711.272109375,442.1809375 711.272109375,443.123125 721.8358593749999,443.123125 721.8358593749999,440.20375 720.755859375,440.20375 720.755859375,442.0403125 714.725859375,442.0403125 714.725859375,437.6471875 719.0233593749999,437.6471875 719.0233593749999,439.2896875 720.106171875,439.2896875 720.106171875,434.9303125 719.0233593749999,434.9303125 719.0233593749999,436.575625 714.725859375,436.575625 714.725859375,431.08 720.896484375,431.08 720.896484375,432.919375 721.9764843749999,432.919375 721.9764843749999,430.0 711.272109375,430.0" /><polygon fill="#C9A227" points="716.233359375,446.6528125 717.8421093750001,444.3325 716.815546875,444.3325 714.5121093749999,446.6528125 716.233359375,446.6528125" /><polygon fill="#C9A227" points="737.76375,436.51375 738.3346875,436.28734375000005 738.82125,435.945625 739.242421875,435.46609374999997 739.6171875,434.82625 741.5240625,430.9309375 743.124375,430.9309375 743.124375,430.0 740.030625,430.0 737.983125,434.17375 737.4171093749999,435.17359375 736.9003124999999,435.743125 736.316015625,436.01101562499997 735.5475,436.1003125 733.5871875,436.1003125 733.5871875,430.9309375 735.4434375,430.9309375 735.4434375,430.0 730.1334375,430.0 730.1334375,430.9309375 731.8040625,430.9309375 731.8040625,442.1809375 730.1334375,442.1809375 730.1334375,443.123125 736.7878125,443.123125 737.69080078125,443.06599609375 739.1687695312501,442.60896484375 739.74375,442.2090625 740.2002539062499,441.70421875 740.72197265625,440.40765625 740.7871875,439.6159375 740.596640625,438.40656249999995 740.025,437.4840625 739.08,436.851953125 737.76375,436.51375" /><polygon fill="#C9A227" points="733.5871875,437.0396875 736.1803125,437.0396875 737.334140625,437.196484375 738.140625,437.666875 738.615234375,438.469140625 738.7734375,439.6159375 738.615234375,440.760625 738.140625,441.5565625 737.334140625,442.02484375 736.1803125,442.1809375 733.5871875,442.1809375 733.5871875,437.0396875" /><polygon fill="#C9A227" points="749.4078515625,430.0 749.4078515625,430.9309375 751.0784765625,430.9309375 751.0784765625,442.1809375 749.4078515625,442.1809375 749.4078515625,443.123125 759.9716015624999,443.123125 759.9716015624999,440.20375 758.8916015625,440.20375 758.8916015625,442.0403125 752.8616015625,442.0403125 752.8616015625,437.6471875 757.1591015624999,437.6471875 757.1591015624999,439.2896875 758.2419140625,439.2896875 758.2419140625,434.9303125 757.1591015624999,434.9303125 757.1591015624999,436.575625 752.8616015625,436.575625 752.8616015625,431.08 759.0322265625,431.08 759.0322265625,432.919375 760.1122265624999,432.919375 760.1122265624999,430.0 749.4078515625,430.0" /></svg>